<?xml version="1.0" standalone="no"?>
<!DOCTYPE svg PUBLIC "-//W3C//DTD SVG 20010904//EN"
 "http://www.w3.org/TR/2001/REC-SVG-20010904/DTD/svg10.dtd">
<svg version="1.0" xmlns="http://www.w3.org/2000/svg"
 width="640.000000pt" height="640.000000pt" viewBox="0 0 640.000000 640.000000"
 preserveAspectRatio="xMidYMid meet">
<metadata>
Created by potrace 1.14, written by Peter Selinger 2001-2017
</metadata>
<g transform="translate(0.000000,640.000000) scale(0.100000,-0.100000)"
fill="#000000" stroke="none">
<path d="M0 3535 l0 -2065 745 0 745 0 16 25 c15 22 23 25 80 25 l64 0 0 61
c0 36 -4 58 -10 54 -5 -3 -34 -6 -65 -6 -103 -2 -164 65 -152 166 9 81 82 144
168 145 20 0 42 6 48 14 8 9 11 96 9 296 l-3 282 -22 -20 c-13 -10 -30 -36
-38 -56 -18 -43 -41 -49 -30 -8 8 33 49 88 75 102 19 10 20 22 20 234 0 299
15 376 102 511 29 46 107 124 158 159 35 23 35 25 36 97 1 88 28 160 80 210
l34 33 0 192 0 192 31 26 c17 14 40 28 52 31 19 5 25 20 40 98 91 467 402 774
852 842 128 19 203 19 328 -1 275 -44 495 -176 663 -399 77 -102 158 -300 186
-453 l13 -73 48 -21 c73 -32 78 -48 77 -251 l-2 -172 41 -44 c54 -58 85 -152
77 -231 l-6 -55 51 -35 c99 -68 190 -202 224 -330 12 -46 15 -171 15 -724 l0
-670 32 -98 c32 -96 33 -98 63 -98 21 0 40 -9 55 -25 l23 -25 739 0 738 0 0
2065 0 2065 -3200 0 -3200 0 0 -2065z"/>
<path d="M2990 5140 c-302 -58 -543 -237 -678 -505 -57 -114 -128 -352 -110
-370 3 -4 52 3 109 13 179 34 509 65 520 49 4 -5 8 -4 11 3 3 9 29 12 90 11
51 -1 89 2 93 9 8 14 38 13 53 -2 7 -7 34 -11 67 -9 45 2 55 0 55 -14 0 -14
-9 -16 -52 -14 -50 3 -53 2 -56 -21 -5 -35 -20 -50 -45 -46 -20 3 -42 48 -29
60 3 3 -16 6 -41 6 -26 0 -56 5 -66 12 -15 9 -22 8 -35 -5 -9 -8 -16 -25 -16
-36 0 -12 -4 -21 -9 -21 -5 0 -8 10 -7 23 2 20 -1 23 -26 19 -19 -3 -28 0 -28
9 0 10 -3 10 -8 3 -4 -6 -67 -16 -142 -23 -327 -28 -548 -82 -551 -134 -3 -71
1 -297 6 -298 3 -1 25 4 49 10 61 15 251 41 301 41 32 0 52 7 81 31 74 59 132
82 220 87 93 5 152 -10 224 -58 l45 -30 183 0 182 0 42 30 c118 86 309 79 424
-15 41 -34 51 -37 139 -46 126 -11 282 -37 305 -49 10 -6 21 -10 24 -10 3 0 6
70 6 155 0 140 -2 157 -19 174 -24 24 -118 54 -242 77 -52 9 -96 20 -99 24 -3
4 -12 10 -20 14 -25 10 111 -4 179 -20 35 -8 66 -12 69 -9 10 9 -19 137 -53
235 -81 234 -233 420 -435 532 -206 115 -468 154 -710 108z m860 -380 c0 -5
-2 -10 -4 -10 -3 0 -8 5 -11 10 -3 6 -1 10 4 10 6 0 11 -4 11 -10z m-10 -262
c0 -5 -4 -7 -9 -4 -12 8 -18 -12 -17 -52 1 -17 -2 -32 -6 -32 -9 0 -11 94 -2
103 8 8 34 -3 34 -15z m-963 6 c-3 -3 -12 -4 -19 -1 -8 3 -5 6 6 6 11 1 17 -2
13 -5z m286 -2 c-6 -4 -13 -28 -16 -52 l-4 -45 -1 53 c-2 44 1 52 16 52 11 0
13 -3 5 -8z m-306 -74 c-2 -13 -4 -3 -4 22 0 25 2 35 4 23 2 -13 2 -33 0 -45z
m800 30 c-3 -7 -5 -2 -5 12 0 14 2 19 5 13 2 -7 2 -19 0 -25z m60 -30 c-3 -7
-5 -2 -5 12 0 14 2 19 5 13 2 -7 2 -19 0 -25z m-462 -78 c4 -6 11 -8 16 -5 5
4 9 -1 9 -9 0 -9 -6 -15 -12 -13 -8 1 -14 -11 -16 -30 -5 -46 -19 -41 -24 7
-2 22 0 40 5 40 4 0 5 5 2 10 -3 6 -2 10 4 10 5 0 13 -5 16 -10z m685 -12 c0
-6 -7 -8 -14 -5 -12 5 -15 -3 -13 -33 1 -22 -4 -45 -11 -52 -9 -9 -12 -6 -12
16 0 20 -5 27 -17 25 -10 -1 -46 -1 -81 0 -45 1 -61 4 -56 13 4 7 3 8 -4 4 -6
-4 -106 -4 -222 0 -166 6 -210 10 -210 21 0 17 131 18 355 2 88 -6 168 -11
178 -11 9 0 17 -3 17 -9 0 -15 40 -10 41 6 1 13 4 27 8 39 2 9 41 -7 41 -16z
m-877 -178 c-3 -13 -13 -20 -27 -19 -11 0 -15 3 -8 6 6 2 12 16 12 30 0 21 3
23 14 14 8 -7 12 -21 9 -31z"/>
<path d="M3034 4304 c-6 -34 8 -60 27 -48 12 7 16 51 7 68 -14 26 -27 19 -34
-20z"/>
<path d="M2700 3975 c0 -14 -4 -25 -10 -25 -5 0 -10 9 -10 20 0 11 -4 20 -9
20 -4 0 -20 -9 -34 -20 -14 -11 -31 -20 -39 -20 -25 -1 -71 -47 -65 -64 5 -12
2 -16 -11 -14 -13 2 -17 -5 -19 -32 -2 -59 -5 -66 -13 -35 l-7 30 -17 -39
c-24 -55 -31 -136 -16 -190 11 -40 14 -44 31 -33 29 18 53 -3 57 -47 2 -21 -2
-43 -8 -51 -8 -9 -8 -15 0 -20 15 -9 12 -22 -5 -29 -10 -4 -26 11 -50 47 -40
60 -65 134 -65 193 l0 40 -134 48 -135 47 -38 -20 c-80 -40 -122 -118 -123
-222 0 -112 58 -199 156 -232 21 -8 39 -18 39 -23 1 -20 16 -84 20 -84 2 0 21
16 42 35 21 20 59 49 86 65 73 46 59 11 -17 -44 -36 -25 -75 -61 -88 -79 -12
-17 -31 -41 -41 -52 -19 -20 -19 -20 -9 1 l11 22 -233 1 -233 2 -17 -65 c-12
-51 -16 -115 -16 -295 0 -174 -3 -231 -12 -235 -20 -8 74 5 105 14 21 7 26 6
21 -3 -4 -7 11 9 34 34 34 38 97 81 122 83 3 0 19 17 37 38 24 29 32 34 37 22
9 -23 4 -27 -84 -85 -44 -28 -80 -58 -80 -65 0 -20 -53 -44 -118 -55 -31 -5
-58 -13 -60 -19 -2 -6 -9 -7 -15 -4 -8 5 -8 2 1 -7 6 -7 12 -32 12 -55 0 -24
4 -46 10 -49 5 -3 51 -11 101 -17 66 -8 94 -7 102 1 6 6 17 11 24 11 10 0 8
-10 -7 -40 -19 -36 -50 -141 -50 -165 0 -5 14 17 30 49 46 89 100 156 127 156
22 0 21 -3 -17 -42 -42 -44 -115 -177 -109 -197 7 -20 46 17 69 65 25 51 118
156 161 181 24 14 29 24 28 53 0 19 -3 29 -6 22 -2 -6 -9 -10 -14 -6 -5 3 -9
-1 -9 -9 0 -8 -7 -18 -16 -21 -22 -8 -34 -8 -34 2 0 12 61 55 77 55 7 0 13 4
13 9 0 5 19 28 43 51 l42 43 -47 -10 c-26 -5 -45 -13 -42 -18 3 -4 1 -8 -5 -8
-5 0 -48 -39 -96 -86 -81 -81 -87 -85 -104 -70 -10 9 -21 13 -24 9 -20 -19 -3
14 24 47 38 47 57 56 55 27 -1 -12 -7 -21 -14 -20 -7 2 -12 -3 -12 -11 0 -7
-7 -19 -15 -26 -9 -7 -13 -15 -11 -18 3 -2 17 10 31 27 15 17 33 31 41 31 9 0
13 4 9 10 -3 5 4 19 15 30 11 11 18 26 14 31 -4 6 0 15 7 20 8 5 17 3 21 -4 5
-8 8 -7 8 5 0 25 101 59 191 65 87 6 134 -1 122 -20 -4 -7 2 -5 12 3 17 14 18
13 13 -1 -8 -21 26 -54 64 -63 14 -3 34 -9 45 -12 10 -3 6 2 -9 12 -15 10 -30
25 -33 33 -3 9 -3 12 1 9 3 -4 15 3 26 15 11 12 16 15 12 7 -4 -8 4 -3 19 12
l26 28 50 -31 c42 -27 49 -35 41 -50 -15 -28 -12 -49 8 -49 11 0 24 12 31 26
11 24 13 25 34 11 28 -18 168 -65 218 -73 l39 -6 -22 -31 c-12 -16 -30 -32
-40 -35 -24 -6 -23 -22 2 -22 12 0 26 13 36 33 10 17 19 27 21 20 2 -7 0 -21
-6 -32 -11 -19 -7 -19 158 -20 187 -2 181 -4 181 65 0 78 -53 128 -177 166
-72 22 -73 23 -73 56 0 18 -11 57 -24 85 -33 69 -44 129 -23 121 8 -3 18 -21
22 -41 3 -20 15 -52 26 -72 10 -20 19 -50 19 -68 0 -18 5 -33 11 -33 12 0 5
132 -8 165 -3 9 1 15 10 15 20 0 27 -31 27 -122 0 -71 2 -78 20 -78 14 0 21 9
25 38 3 20 8 45 10 55 2 9 0 17 -4 17 -6 0 -7 28 -2 75 2 18 3 17 12 -5 6 -14
9 -38 9 -55 -5 -96 0 -146 18 -152 9 -4 36 -19 59 -35 29 -20 54 -28 85 -28
34 -1 39 -3 25 -11 -9 -6 -15 -14 -13 -18 3 -4 -4 -18 -15 -30 -12 -12 -19
-24 -17 -26 6 -7 128 23 192 47 32 12 70 32 85 46 14 13 69 44 121 69 52 25
97 50 98 55 2 4 8 6 13 2 5 -3 8 -2 7 3 -2 4 7 18 20 31 12 12 22 32 22 45 0
29 25 126 44 169 l14 33 1 -38 c1 -21 -3 -36 -8 -33 -5 4 -7 -4 -3 -16 4 -15
2 -19 -7 -13 -10 6 -11 2 -6 -15 5 -17 4 -21 -6 -15 -9 6 -11 4 -6 -8 3 -9 2
-19 -3 -22 -6 -4 -10 -17 -10 -31 0 -14 4 -23 10 -19 5 3 7 12 4 19 -3 7 4 24
15 37 19 22 20 23 21 4 0 -18 2 -18 21 5 48 60 123 177 146 229 41 90 74 193
68 212 -4 13 3 17 36 22 60 8 118 52 151 116 35 67 39 172 9 236 -23 49 -74
99 -121 119 -35 14 -40 13 -170 -34 l-135 -48 -6 -69 c-12 -127 -83 -228 -201
-288 -63 -31 -79 -35 -149 -35 -111 0 -178 27 -252 100 l-58 58 -14 -28 c-33
-63 -127 -82 -177 -35 -15 14 -31 37 -34 50 -6 24 -24 35 -24 16 0 -15 -72
-87 -109 -109 -28 -17 -32 -22 -18 -28 21 -8 22 -21 2 -21 -8 0 -15 3 -15 6 0
4 -12 8 -26 9 -23 2 -24 1 -9 -14 9 -9 18 -14 21 -11 3 3 18 1 32 -4 22 -7 27
-16 29 -44 2 -31 0 -34 -16 -26 -12 7 -22 6 -31 -2 -10 -10 -10 -8 -1 11 7 13
10 28 7 35 -2 7 -5 4 -5 -6 -1 -10 -5 -16 -10 -12 -5 3 -21 0 -34 -6 -19 -8
-30 -8 -43 0 -17 11 -16 11 5 5 16 -4 21 -3 17 5 -4 6 0 11 11 11 24 0 -36 37
-68 42 -13 2 -27 7 -30 11 -4 5 -19 10 -33 10 -21 2 -29 8 -33 30 -3 15 -12
27 -19 27 -8 0 -14 5 -14 10 0 19 38 10 43 -10 3 -11 13 -20 22 -20 9 0 13 5
10 10 -3 6 -1 10 4 10 6 0 11 -7 11 -15 0 -8 8 -15 18 -16 14 0 14 -2 -3 -9
-15 -6 -9 -8 23 -8 41 0 42 1 42 34 0 31 3 34 30 34 16 0 33 -7 38 -16 7 -13
15 -10 51 20 41 34 42 36 17 36 -42 0 -62 64 -33 105 11 13 21 16 41 11 26 -6
28 -10 24 -56 -2 -38 0 -46 10 -38 6 6 12 25 12 44 0 21 7 38 19 46 23 16 38
60 19 56 -9 -2 -14 13 -16 55 -2 46 0 57 12 57 20 0 10 30 -16 48 -10 7 -18
26 -18 42 0 16 -4 32 -10 35 -6 4 -10 -8 -10 -27 0 -37 -15 -58 -40 -58 -23 0
-42 40 -36 75 2 17 5 33 5 38 1 4 10 7 21 7 29 0 25 15 -11 41 -26 18 -35 20
-51 10 -22 -14 -58 1 -58 24 0 21 -8 19 -33 -11 -26 -30 -54 -25 -63 12 -9 35
-54 34 -54 -1z m-69 -98 c6 -61 1 -85 -21 -92 -32 -10 -50 12 -50 61 0 30 5
46 17 53 20 11 52 -2 54 -22z m94 -31 c0 -35 -5 -52 -17 -59 -26 -17 -48 9
-48 58 0 49 6 57 40 53 23 -3 25 -7 25 -52z m99 38 c10 -26 7 -79 -6 -92 -30
-30 -68 -1 -68 52 0 41 10 56 40 56 16 0 30 -7 34 -16z m80 10 c9 -3 16 -10
16 -15 0 -4 -7 -6 -15 -3 -12 5 -15 -4 -15 -45 0 -28 -4 -51 -10 -51 -6 0 -10
27 -10 60 0 60 4 66 34 54z m-370 -170 c10 -26 7 -79 -6 -92 -18 -18 -46 -14
-58 7 -23 44 -4 101 34 101 13 0 27 -7 30 -16z m94 -1 c8 -17 8 -28 4 -75 -3
-22 -39 -33 -57 -18 -15 13 -20 65 -9 94 8 21 51 20 62 -1z m100 -34 c3 -52
-14 -75 -48 -64 -13 4 -20 16 -21 33 -3 67 5 84 38 80 26 -3 28 -7 31 -49z
m98 27 c9 -37 1 -78 -18 -90 -38 -24 -69 29 -54 90 5 19 13 24 36 24 23 0 31
-5 36 -24z m78 18 c9 -3 16 -11 16 -16 0 -6 -7 -8 -15 -4 -12 4 -15 -4 -15
-44 0 -28 -4 -50 -10 -50 -6 0 -10 27 -10 60 0 60 4 66 34 54z m107 -4 c5 0 9
-5 9 -11 0 -6 -7 -9 -15 -5 -12 4 -15 -4 -15 -39 0 -24 -4 -47 -10 -50 -6 -4
-10 17 -10 55 0 53 2 61 16 56 9 -3 20 -6 25 -6z m-390 -160 c5 0 9 -4 9 -10
0 -5 -7 -10 -15 -10 -11 0 -15 -12 -15 -45 0 -25 -4 -45 -10 -45 -6 0 -10 27
-10 61 0 52 2 60 16 55 9 -3 20 -6 25 -6z m100 0 c5 0 9 -4 9 -10 0 -5 -7 -10
-15 -10 -11 0 -15 -12 -15 -45 0 -25 -4 -45 -10 -45 -6 0 -10 27 -10 61 0 52
2 60 16 55 9 -3 20 -6 25 -6z m99 -11 c0 -5 -7 -9 -15 -9 -11 0 -15 -12 -15
-45 0 -25 -4 -45 -9 -45 -8 0 -12 97 -5 112 5 9 44 -2 44 -13z m104 -17 c13
-48 -6 -84 -42 -80 -24 3 -27 7 -30 47 -4 59 2 73 35 69 21 -2 29 -10 37 -36z
m-286 -151 c3 -8 8 -7 17 5 12 16 13 16 24 -4 10 -18 9 -22 -4 -22 -12 0 -15
-6 -10 -20 4 -11 2 -20 -4 -20 -6 0 -11 9 -11 19 0 18 -7 19 -88 18 -62 -2
-89 2 -89 10 0 6 9 10 19 8 10 -2 18 0 18 5 0 19 122 20 128 1z m-192 -20 c-4
-5 -1 -11 5 -13 6 -2 -5 -9 -25 -15 -42 -13 -44 -11 -14 17 22 20 44 28 34 11z
m264 -26 c0 -10 11 -15 33 -16 31 -2 31 -2 -8 -9 -22 -4 -33 -8 -24 -9 9 0 22
-8 30 -17 12 -14 8 -15 -32 -9 -24 3 -53 8 -64 9 -10 2 -37 -3 -60 -9 -77 -23
-102 -25 -102 -9 0 8 6 13 13 10 7 -3 14 -1 16 4 2 6 39 13 83 16 83 7 110 18
101 41 -3 7 -1 13 4 13 6 0 10 -7 10 -15z m94 -46 c34 -9 37 -13 22 -21 -11
-6 -22 -6 -31 2 -8 6 -18 10 -22 7 -4 -3 -14 1 -21 9 -16 18 -3 18 52 3z m324
-117 c12 -14 22 -29 22 -34 0 -4 18 -8 41 -8 50 0 98 -27 106 -59 7 -30 -7
-73 -27 -79 -8 -3 -12 -1 -8 3 4 4 3 17 -3 28 -8 14 -8 18 0 13 6 -4 11 0 11
8 0 25 -37 56 -67 56 -21 0 -24 -3 -15 -12 21 -21 13 -30 -23 -26 -30 3 -35 1
-35 -16 0 -10 3 -16 7 -13 3 4 15 -5 25 -20 10 -16 22 -29 28 -29 5 -1 22 -2
38 -3 21 -1 24 -3 12 -11 -36 -23 -110 -2 -110 31 0 6 -4 8 -9 5 -5 -3 -12 1
-15 10 -3 8 -2 12 4 9 6 -3 1 9 -11 29 -20 35 -80 94 -134 133 -16 12 -27 25
-23 29 9 8 78 -37 72 -47 -2 -4 1 -11 7 -15 8 -4 9 -3 5 4 -10 17 9 15 23 -1
6 -8 7 -18 3 -22 -4 -5 -1 -5 6 -1 6 4 12 3 12 -1 0 -5 9 -14 21 -21 12 -8 18
-9 15 -3 -3 5 2 12 11 14 13 3 11 5 -6 6 -30 1 -111 74 -101 91 4 7 5 22 2 34
-5 18 2 15 44 -18 27 -22 59 -51 72 -64z m-668 78 c15 -10 12 -11 -22 -14 -7
-1 -15 -4 -18 -7 -3 -3 -30 -22 -60 -42 -30 -20 -67 -46 -82 -57 -22 -17 -28
-18 -28 -7 0 30 130 125 151 111 7 -4 9 -3 5 4 -11 18 30 28 54 12z m450 -20
c0 -5 -2 -10 -4 -10 -3 0 -8 5 -11 10 -3 6 -1 10 4 10 6 0 11 -4 11 -10z
m-155 -10 c71 -11 188 -67 238 -112 30 -28 33 -35 21 -46 -11 -10 -14 -10 -14
0 -1 22 -141 102 -210 120 -81 21 -168 22 -240 3 -30 -8 -56 -15 -57 -15 -2 0
-3 6 -3 14 0 19 32 30 42 14 6 -11 8 -10 8 0 0 7 5 10 10 7 6 -3 10 -2 10 4 0
20 103 26 195 11z m-290 -40 c-3 -5 0 -10 7 -10 7 -1 2 -7 -12 -14 -14 -8 -28
-12 -32 -10 -5 3 -8 1 -8 -3 0 -5 -14 -17 -31 -27 -42 -25 -97 -74 -110 -99
-7 -12 -7 -17 -1 -13 5 3 12 -1 16 -9 9 -25 -14 -28 -36 -3 -15 17 -19 18 -15
5 4 -10 -2 -31 -13 -50 -11 -17 -20 -28 -20 -23 0 5 -7 3 -15 -4 -13 -11 -14
-10 -9 4 3 9 10 16 16 16 5 0 7 4 4 8 -3 5 6 25 19 44 15 22 22 44 19 59 -3
15 -2 19 3 9 10 -20 33 -24 33 -6 0 16 86 84 145 115 45 24 49 25 40 11z
m-228 -79 c2 -19 -48 -74 -63 -71 -5 1 -10 -4 -13 -11 -2 -7 1 -9 8 -4 7 4 3
-11 -8 -34 -21 -41 -36 -56 -24 -24 5 11 3 14 -6 9 -18 -12 15 50 57 107 40
52 47 56 49 28z m-95 -31 c-9 -21 -18 -35 -20 -30 -3 9 25 70 33 70 2 0 -4
-18 -13 -40z m928 -60 c0 -11 -3 -20 -8 -20 -4 0 -13 9 -20 20 -11 18 -10 20
8 20 13 0 20 -7 20 -20z m-958 -27 c-3 -16 -7 -22 -10 -15 -4 13 4 42 11 42 2
0 2 -12 -1 -27z m982 -9 c3 -8 2 -12 -4 -9 -6 3 -10 10 -10 16 0 14 7 11 14
-7z m-982 -41 c-5 -10 -12 -25 -15 -33 -3 -8 -6 0 -6 18 -1 22 4 32 14 32 12
0 13 -5 7 -17z m1003 8 c3 -5 1 -12 -4 -15 -5 -3 -11 1 -15 9 -6 16 9 21 19 6z
m-826 -26 c-26 -14 -89 -18 -89 -5 0 4 10 7 23 6 12 -1 33 1 47 5 40 11 47 9
19 -6z m194 -156 l69 -66 -26 -16 c-33 -22 -36 -21 -36 6 0 14 -18 40 -45 67
-50 49 -147 169 -127 156 7 -4 12 -2 12 6 1 7 20 -9 43 -37 23 -27 73 -80 110
-116z m-372 114 c-12 -20 -14 -14 -5 12 4 9 9 14 11 11 3 -2 0 -13 -6 -23z
m42 -5 c-4 -7 -8 -16 -8 -20 0 -3 -4 -10 -9 -15 -5 -5 -6 -3 -2 5 4 6 2 12 -3
12 -6 0 -11 -5 -11 -12 0 -15 -40 -58 -54 -58 -6 0 3 12 19 26 21 17 26 27 17
31 -10 4 22 28 56 42 2 0 0 -5 -5 -11z m47 7 c0 -2 -10 -9 -22 -15 -22 -11
-22 -10 -4 4 21 17 26 19 26 11z m878 -406 c-2 -6 -7 -10 -12 -9 -5 1 -13 -4
-17 -12 -7 -10 -9 -10 -9 3 0 9 3 19 7 22 10 11 35 8 31 -4z m195 4 c-7 -2
-19 -2 -25 0 -7 3 -2 5 12 5 14 0 19 -2 13 -5z"/>
<path d="M2580 3845 c0 -39 3 -46 18 -43 13 2 17 13 17 43 0 30 -4 41 -17 43
-15 3 -18 -4 -18 -43z"/>
<path d="M2674 3866 c-8 -35 -1 -60 19 -64 14 -3 17 4 17 42 0 34 -4 46 -15
46 -8 0 -17 -11 -21 -24z"/>
<path d="M2774 3877 c-10 -27 0 -72 16 -72 11 0 15 11 15 39 0 40 -20 61 -31
33z"/>
<path d="M2484 3717 c-11 -29 0 -72 19 -75 16 -3 18 2 15 39 -3 43 -23 64 -34
36z"/>
<path d="M2587 3724 c-4 -4 -7 -25 -7 -46 0 -32 3 -39 18 -36 13 2 17 13 17
42 0 37 -13 55 -28 40z"/>
<path d="M2676 3705 c-9 -34 1 -65 20 -65 12 0 14 10 12 42 -3 48 -23 61 -32
23z"/>
<path d="M2777 3724 c-4 -4 -7 -25 -7 -46 0 -32 3 -38 21 -38 18 0 20 5 17 42
-3 39 -16 57 -31 42z"/>
<path d="M2870 3521 c0 -22 4 -42 9 -46 11 -6 28 23 25 43 -1 6 -2 19 -3 27 0
8 -8 15 -16 15 -11 0 -15 -11 -15 -39z"/>
<path d="M2190 3075 c-7 -9 -11 -18 -8 -20 3 -3 11 1 18 10 7 9 11 18 8 20 -3
3 -11 -1 -18 -10z"/>
<path d="M2146 3005 c-9 -26 -7 -32 5 -12 6 10 9 21 6 23 -2 3 -7 -2 -11 -11z"/>
<path d="M2772 3983 c2 -10 10 -18 18 -18 8 0 16 8 18 18 2 12 -3 17 -18 17
-15 0 -20 -5 -18 -17z"/>
<path d="M3557 3993 c-4 -3 -7 -15 -7 -25 0 -10 -4 -18 -10 -18 -5 0 -10 9
-10 20 0 14 -5 18 -17 13 -10 -4 -23 -13 -28 -20 -6 -8 -18 -15 -28 -17 -30
-4 -77 -45 -70 -61 3 -10 0 -15 -8 -13 -10 2 -15 -11 -17 -44 -3 -48 -22 -68
-22 -25 -1 21 -1 21 -15 -4 -23 -42 -30 -133 -15 -195 14 -57 30 -81 30 -44 0
16 4 20 16 16 9 -3 20 -6 25 -6 5 0 9 -5 9 -11 0 -6 -7 -9 -15 -5 -12 4 -15
-3 -15 -32 0 -30 7 -45 33 -69 17 -17 42 -34 55 -38 12 -3 31 -16 42 -27 23
-25 51 -18 43 11 -6 25 6 27 33 6 17 -13 17 -14 2 -15 -26 0 -22 -27 5 -34 48
-13 57 -8 57 29 0 39 7 42 36 20 17 -13 17 -14 2 -15 -11 0 -18 -8 -18 -21 0
-16 5 -19 20 -15 11 3 29 8 39 11 11 4 21 17 23 30 3 24 4 24 30 11 26 -14 29
-13 78 31 54 48 80 89 80 123 0 12 4 19 9 16 5 -3 11 5 13 18 4 19 0 26 -17
30 -37 9 -40 104 -4 113 25 7 24 39 -1 53 -12 7 -20 21 -20 38 0 15 -8 36 -16
47 -15 19 -15 18 -10 -17 7 -47 -22 -89 -51 -72 -27 17 -31 99 -5 113 11 6 22
7 26 4 3 -3 6 -2 6 4 0 6 -21 25 -47 42 -44 30 -49 31 -60 14 -12 -16 -13 -15
-13 4 0 13 -8 23 -22 27 -45 12 -58 7 -58 -19 0 -14 -4 -25 -10 -25 -5 0 -10
11 -10 25 0 22 -4 25 -33 25 -19 0 -37 -3 -40 -7z m123 -147 c0 -84 -62 -89
-68 -5 -4 50 17 75 49 58 14 -7 19 -21 19 -53z m-202 35 c3 -8 0 -11 -7 -7 -7
5 -11 -7 -11 -38 0 -25 -4 -48 -10 -51 -6 -4 -10 17 -10 55 0 52 3 61 17 58 9
-2 18 -9 21 -17z m108 -7 c4 -14 2 -40 -3 -57 -16 -58 -73 -43 -73 18 0 51 9
65 41 65 22 0 30 -6 35 -26z m168 20 c9 -3 16 -10 16 -15 0 -4 -7 -6 -16 -2
-13 5 -15 -2 -13 -40 2 -26 0 -49 -4 -53 -4 -4 -7 20 -7 54 0 34 2 62 4 62 2
0 11 -3 20 -6z m-366 -171 c4 -10 7 -28 6 -40 -1 -13 -2 -29 -3 -37 -1 -18
-28 -28 -52 -21 -15 5 -19 16 -19 54 0 26 3 51 7 54 13 14 52 7 61 -10z m100
-31 c3 -47 -10 -72 -39 -72 -22 0 -39 29 -39 67 0 37 18 55 50 51 22 -3 25 -9
28 -46z m76 42 c9 -3 16 -11 16 -16 0 -6 -7 -8 -15 -4 -12 4 -15 -4 -15 -45 0
-32 -4 -48 -10 -44 -12 8 -11 115 1 115 4 0 14 -3 23 -6z m107 -4 c5 0 9 -5 9
-11 0 -6 -7 -9 -15 -5 -12 4 -15 -4 -15 -39 0 -24 -4 -47 -10 -50 -6 -4 -10
17 -10 55 0 53 2 61 16 56 9 -3 20 -6 25 -6z m83 4 c9 -3 16 -10 16 -16 0 -5
-4 -6 -10 -3 -10 6 -12 1 -14 -52 -2 -59 -16 -47 -16 15 0 34 2 62 4 62 2 0
11 -3 20 -6z m100 0 c9 -3 16 -11 16 -16 0 -6 -7 -8 -15 -4 -12 4 -15 -4 -15
-45 0 -31 -4 -48 -10 -44 -13 8 -13 115 -1 115 5 0 16 -3 25 -6z m-364 -175
c0 -5 -7 -9 -15 -9 -11 0 -15 -12 -15 -45 0 -42 -19 -66 -21 -27 -1 19 -1 96
0 98 4 6 51 -10 51 -17z m90 2 c14 -26 13 -74 -2 -89 -17 -17 -55 -15 -62 4
-10 26 -7 79 6 92 18 18 46 14 58 -7z m95 -41 c0 -54 0 -55 -30 -55 -28 0 -30
3 -33 44 -4 60 2 73 35 69 27 -3 28 -5 28 -58z m79 54 c18 -7 22 -25 4 -21 -7
1 -12 -15 -13 -41 -4 -67 -15 -62 -15 6 0 34 2 62 4 62 2 0 11 -3 20 -6z m107
-4 c5 0 9 -4 9 -10 0 -5 -7 -10 -15 -10 -11 0 -15 -12 -15 -45 0 -25 -4 -45
-10 -45 -6 0 -10 27 -10 61 0 52 2 60 16 55 9 -3 20 -6 25 -6z"/>
<path d="M3625 3871 c-8 -26 4 -71 20 -71 12 0 25 56 17 79 -6 18 -30 13 -37
-8z"/>
<path d="M3532 3848 c2 -30 7 -43 18 -43 24 0 21 79 -3 83 -16 3 -18 -2 -15
-40z"/>
<path d="M3347 3723 c-4 -3 -7 -24 -7 -45 0 -44 26 -54 36 -14 10 41 -9 80
-29 59z"/>
<path d="M3434 3717 c-11 -29 0 -72 19 -75 16 -3 18 2 15 39 -3 43 -23 64 -34
36z"/>
<path d="M3536 3563 c-8 -8 -8 -78 1 -86 13 -13 33 16 33 48 0 30 -20 52 -34
38z"/>
<path d="M3634 3556 c-11 -28 -11 -51 -2 -69 14 -27 28 -10 28 33 0 40 -16 62
-26 36z"/>
<path d="M2870 3975 c0 -8 7 -15 15 -15 8 0 15 4 15 9 0 5 -7 11 -15 15 -9 3
-15 0 -15 -9z"/>
<path d="M3052 3903 c2 -5 14 -28 27 -53 l23 -45 94 1 94 2 25 46 c14 26 25
49 25 52 0 2 -66 4 -146 4 -80 0 -144 -3 -142 -7z"/>
<path d="M2964 3866 c-8 -35 -1 -60 19 -64 14 -3 17 4 17 42 0 34 -4 46 -15
46 -8 0 -17 -11 -21 -24z"/>
<path d="M3820 3845 c0 -39 3 -46 18 -43 13 2 17 13 17 43 0 30 -4 41 -17 43
-15 3 -18 -4 -18 -43z"/>
<path d="M2370 3875 c-8 -2 -56 -9 -107 -16 -114 -15 -109 -24 43 -79 93 -34
106 -36 111 -22 3 10 16 41 29 70 l23 52 -42 -1 c-23 -1 -49 -3 -57 -4z"/>
<path d="M3940 3843 c10 -22 22 -51 25 -66 4 -15 10 -27 14 -27 12 0 216 74
221 80 3 4 12 9 20 12 18 6 -113 26 -222 35 l-78 6 20 -40z"/>
<path d="M3145 3773 c-18 -3 -20 -12 -20 -92 0 -86 1 -88 20 -75 23 16 96 19
111 4 7 -7 10 17 11 74 l0 84 -30 6 c-31 6 -58 6 -92 -1z"/>
<path d="M3914 3716 c-10 -27 1 -71 19 -74 14 -3 17 4 17 42 0 35 -4 46 -15
46 -9 0 -18 -6 -21 -14z"/>
<path d="M2493 3563 c-16 -6 -16 -25 -1 -58 16 -36 28 -31 28 14 0 41 -6 51
-27 44z"/>
<path d="M2963 3544 c-7 -20 8 -67 22 -68 6 -1 11 18 13 42 2 33 0 42 -13 42
-8 0 -18 -7 -22 -16z"/>
<path d="M2872 3389 c2 -6 8 -10 13 -10 5 0 11 4 13 10 2 6 -4 11 -13 11 -9 0
-15 -5 -13 -11z"/>
<path d="M3748 3383 c7 -3 16 -2 19 1 4 3 -2 6 -13 5 -11 0 -14 -3 -6 -6z"/>
<path d="M4180 3093 c-56 -126 -198 -326 -200 -281 0 11 -5 15 -15 12 -8 -4
-12 -10 -9 -15 3 -5 -4 -25 -16 -45 -27 -43 -36 -161 -11 -141 12 10 13 9 7
-8 -4 -11 -9 -28 -11 -38 -2 -10 -7 -27 -10 -37 -3 -10 -1 -21 5 -25 5 -3 10
1 10 9 0 18 84 51 172 67 48 9 88 9 156 1 111 -13 175 -44 270 -128 l63 -57
56 6 c31 3 59 9 64 14 4 4 9 148 11 318 3 274 1 317 -15 368 l-18 57 -237 0
-237 0 -35 -77z"/>
<path d="M3809 2656 c-149 -64 -241 -144 -238 -205 1 -17 3 -20 6 -8 2 9 9 17
14 17 6 0 8 4 5 8 -3 5 6 21 20 38 14 16 22 22 18 14 -4 -8 7 0 25 18 19 18
36 30 39 27 3 -3 14 2 24 12 10 9 18 13 18 9 0 -4 7 0 16 8 8 9 19 14 24 11 4
-3 13 2 20 10 7 8 16 12 21 9 5 -3 9 0 9 6 0 7 6 10 12 8 16 -6 51 27 47 41
-3 6 -35 -3 -80 -23z"/>
<path d="M2378 2643 c7 -3 16 -2 19 1 4 3 -2 6 -13 5 -11 0 -14 -3 -6 -6z"/>
<path d="M2275 2606 c-16 -7 -39 -24 -50 -36 l-20 -23 22 12 c27 14 112 19
113 7 1 -10 -130 -47 -142 -40 -9 6 -29 -56 -22 -68 3 -5 13 -3 23 6 17 15 48
29 94 40 20 5 27 3 27 -9 0 -8 -12 -18 -27 -21 -56 -13 -149 -63 -197 -105
-47 -42 -106 -114 -106 -130 0 -4 18 -7 40 -6 22 2 40 1 40 -1 0 -1 -20 -11
-45 -22 -61 -26 -152 -89 -200 -140 -22 -22 -61 -55 -87 -72 -27 -16 -45 -34
-42 -39 8 -14 -75 -49 -116 -49 -73 0 -133 -61 -133 -134 0 -82 68 -136 151
-121 69 12 67 9 67 87 0 60 4 79 23 106 32 44 84 68 162 75 36 3 74 8 85 12
14 5 11 -1 -10 -19 -24 -21 -40 -26 -84 -26 -95 0 -151 -54 -151 -143 0 -50
24 -88 70 -112 37 -19 83 -19 148 0 50 15 52 17 52 51 0 38 27 100 56 126 11
9 41 26 67 37 26 11 62 31 80 44 18 13 46 29 62 35 55 22 -62 -74 -130 -106
-69 -34 -96 -66 -103 -127 -11 -104 90 -174 191 -131 18 7 56 32 85 55 l53 42
-6 54 c-12 96 45 179 132 192 21 3 46 10 57 15 18 10 18 9 0 -16 -12 -15 -29
-26 -44 -26 -59 -1 -120 -70 -120 -137 0 -68 66 -133 135 -133 77 0 169 72
224 175 l21 40 -6 -40 c-3 -22 -19 -60 -35 -84 -17 -24 -29 -45 -27 -47 8 -7
62 27 77 49 16 22 18 27 20 57 1 9 13 0 31 -22 37 -45 81 -56 146 -38 66 19
104 66 104 130 0 74 -38 111 -150 148 l-85 29 -6 44 c-3 24 -15 60 -26 79 -12
19 -25 53 -29 75 -6 36 -6 39 9 26 9 -7 21 -30 27 -50 12 -43 49 -95 50 -70 0
44 -44 152 -85 206 -52 69 -139 133 -157 115 -7 -7 -18 -12 -25 -12 -18 0 -5
30 29 66 l29 31 -61 16 c-33 9 -71 17 -85 17 -16 0 -25 6 -25 15 0 8 -5 15
-11 15 -6 0 -8 8 -5 18 5 15 -2 17 -57 19 -35 1 -75 -3 -92 -11z m241 -107
c43 -11 58 -37 18 -31 -10 2 -54 6 -96 9 -57 4 -78 9 -78 19 0 18 91 19 156 3z"/>
<path d="M4075 2556 c-60 -15 -157 -56 -167 -70 -4 -6 -8 -20 -8 -31 0 -14
-15 -28 -47 -45 -105 -55 -227 -212 -249 -319 l-6 -34 31 24 c17 13 45 50 61
82 62 118 197 219 330 248 32 7 90 9 140 6 235 -16 420 -177 480 -419 26 -102
51 -169 61 -162 24 15 -1 197 -41 289 -48 111 -161 235 -264 287 -146 74 -338
88 -470 33 -14 -6 -17 -4 -14 11 6 32 122 56 238 50 191 -10 358 -99 469 -253
25 -34 47 -60 50 -58 2 3 -13 40 -34 82 -104 211 -347 332 -560 279z"/>
<path d="M2734 2529 c-19 -22 -19 -22 4 -8 12 8 22 17 22 21 0 12 -6 9 -26
-13z"/>
<path d="M2664 2495 c-4 -10 -9 -13 -13 -6 -9 14 -51 -15 -51 -35 0 -8 5 -12
10 -9 14 9 52 -4 45 -16 -4 -5 2 -9 11 -9 29 0 104 -88 141 -166 28 -58 36
-90 40 -154 3 -44 10 -83 15 -86 46 -28 26 163 -28 272 -19 39 -48 84 -64 99
-23 22 -27 31 -18 42 9 11 8 13 -3 11 -8 -2 -13 3 -11 10 1 6 -2 12 -7 12 -5
0 -11 10 -13 23 -4 27 -45 37 -54 12z"/>
<path d="M3855 2461 c-3 -5 -1 -12 5 -16 5 -3 10 1 10 9 0 18 -6 21 -15 7z"/>
<path d="M4020 2383 c-55 -10 -168 -74 -218 -123 -58 -57 -91 -110 -70 -110 7
0 -19 -31 -58 -68 -83 -79 -114 -138 -114 -219 0 -37 3 -52 11 -47 7 4 9 0 5
-12 -30 -98 -65 -308 -66 -389 0 -106 110 -175 206 -129 63 30 73 61 84 255 5
96 10 185 10 199 l1 25 11 -25 11 -25 5 25 c2 14 8 30 13 35 7 6 7 -6 3 -35
-4 -24 -8 -123 -8 -220 -1 -196 2 -208 75 -249 68 -39 147 -18 189 51 24 40
25 95 5 302 -14 144 -14 189 1 132 4 -16 12 -25 19 -22 17 6 21 -19 35 -199
13 -172 32 -226 89 -259 45 -26 114 -25 148 0 50 37 65 68 64 126 0 58 -42
270 -66 339 -9 23 -14 44 -12 46 2 2 16 -14 31 -35 18 -26 35 -79 56 -173 39
-168 68 -212 153 -226 77 -12 157 54 157 131 0 38 -55 198 -100 286 -22 45
-40 88 -40 96 0 9 -16 39 -35 68 -19 29 -35 61 -35 70 0 27 -27 72 -56 95 -36
28 -27 33 19 11 l37 -18 -26 48 c-58 107 -183 202 -309 235 -55 14 -167 18
-225 8z"/>
<path d="M3221 2263 c-321 -3 -343 -4 -336 -21 16 -38 26 -100 28 -169 2 -70
3 -73 31 -85 67 -27 116 -90 116 -148 l0 -30 119 0 118 0 117 56 c130 62 128
58 151 183 12 61 32 113 83 214 2 4 -16 6 -40 5 -23 -2 -198 -4 -387 -5z"/>
<path d="M3405 1831 c-117 -57 -179 -111 -195 -170 -28 -103 58 -198 158 -176
16 3 52 30 80 59 48 49 53 59 67 132 19 99 20 204 3 204 -7 0 -58 -22 -113
-49z"/>
<path d="M2695 1629 c-49 -38 -69 -49 -156 -88 l-44 -20 128 0 127 -1 0 75 c0
41 -1 75 -2 74 -2 0 -25 -18 -53 -40z"/>
<path d="M1682 1588 l3 -63 90 0 90 0 3 31 c3 31 3 31 -52 36 -37 3 -68 13
-96 32 l-41 27 3 -63z"/>
<path d="M2322 1628 c-20 -20 -14 -28 25 -28 35 0 36 0 18 20 -21 23 -27 24
-43 8z"/>
<path d="M1932 1613 c-25 -5 -37 -26 -37 -63 0 -24 2 -25 83 -28 l82 -3 -51
51 c-27 27 -51 49 -52 49 -1 -1 -12 -4 -25 -6z"/>
<path d="M2540 1598 c-41 -15 -86 -21 -173 -23 -113 -3 -138 -7 -124 -22 14
-13 166 -15 219 -3 56 13 158 55 158 64 0 9 -21 5 -80 -16z"/>
<path d="M2188 1523 c7 -3 16 -2 19 1 4 3 -2 6 -13 5 -11 0 -14 -3 -6 -6z"/>
<path d="M1229 1177 l-306 -312 1139 -3 c626 -1 1651 -1 2279 0 l1140 3 -306
312 c-235 239 -312 313 -331 313 -25 0 -32 -18 -13 -37 6 -6 9 -21 7 -34 -2
-18 -10 -25 -30 -27 -56 -7 -26 -22 41 -22 65 0 71 -2 95 -31 15 -18 26 -43
26 -60 l0 -29 -199 0 -200 0 -22 31 c-12 17 -22 47 -23 67 -1 38 -26 59 -26
22 0 -37 -40 -97 -82 -120 -31 -17 -49 -21 -91 -16 -29 3 -82 8 -118 12 -51 5
-69 11 -75 25 -8 16 -12 16 -42 -12 l-32 -29 60 0 60 0 20 -41 c12 -22 20 -50
18 -62 -3 -21 -9 -22 -115 -25 l-112 -3 -16 30 c-8 17 -15 45 -15 63 0 31 -3
35 -44 47 -30 8 -89 12 -184 9 -132 -3 -142 -2 -170 19 -29 21 -30 22 -35 3
-5 -18 -14 -20 -111 -20 l-105 0 -6 34 c-4 18 -5 44 -3 57 3 23 7 24 91 27 48
1 87 7 87 12 0 6 -147 10 -390 10 -431 0 -410 -3 -392 64 l10 36 -78 0 -79 0
1 -28 c1 -15 -4 -38 -11 -50 -11 -21 -17 -23 -109 -20 l-97 3 1 30 c0 17 4 38
8 48 7 15 1 17 -63 17 -65 0 -71 -2 -71 -21 0 -11 -8 -34 -17 -50 -17 -29 -18
-29 -115 -29 l-98 0 0 28 c0 15 7 38 16 50 l15 22 -65 0 c-63 0 -66 -1 -66
-24 0 -13 -11 -39 -24 -59 l-25 -36 22 -3 c30 -4 33 -40 7 -83 l-22 -35 -206
2 c-257 4 -254 0 -122 141 l92 97 -34 0 c-30 -1 -60 -28 -339 -313z m1479 171
c2 -9 -2 -35 -8 -57 l-11 -41 -109 0 c-109 0 -110 0 -110 24 0 13 7 40 15 60
l16 37 102 -3 c86 -3 102 -6 105 -20z m400 -40 l3 -58 -111 0 -110 0 0 34 c0
19 4 46 10 61 10 26 10 26 107 23 l98 -3 3 -57z m-811 26 c3 -9 -1 -31 -10
-50 l-17 -34 -104 0 c-63 0 -107 4 -111 11 -4 5 5 28 19 50 l26 39 95 0 c78 0
97 -3 102 -16z m-727 -135 c0 -17 -11 -45 -26 -65 l-26 -34 -114 0 -114 0 0
30 c0 19 11 42 31 65 l31 35 109 0 109 0 0 -31z m438 4 c2 -13 -7 -41 -19 -63
l-23 -40 -113 0 -113 0 0 32 c0 18 11 45 26 65 l26 34 106 -3 c102 -3 107 -4
110 -25z m432 -7 c0 -18 -5 -47 -11 -65 l-11 -31 -114 0 -114 0 0 30 c0 16 8
45 17 65 l17 35 108 0 108 0 0 -34z m438 10 c2 -10 1 -38 -3 -62 l-6 -45 -117
3 -117 3 2 35 c1 20 7 48 12 63 l11 28 107 -3 c96 -3 108 -5 111 -22z m440
-43 l3 -63 -115 0 c-67 0 -117 4 -121 10 -4 6 -3 35 0 65 l7 56 112 -3 111 -3
3 -62z m432 46 c6 -11 12 -39 13 -62 l2 -42 -115 0 -115 0 -8 47 c-14 77 -12
78 107 78 96 0 106 -2 116 -21z m893 -20 c16 -23 27 -51 25 -62 -3 -21 -9 -22
-118 -25 l-115 -2 -22 39 c-23 40 -29 72 -16 84 3 4 54 7 112 7 l106 -1 28
-40z m441 0 c24 -26 36 -48 34 -62 -3 -21 -9 -22 -115 -25 l-113 -3 -30 33
c-27 31 -39 76 -23 91 3 4 52 7 109 7 l102 0 36 -41z m-3386 -141 c2 -16 -7
-41 -25 -67 l-28 -40 -122 -1 -123 0 0 31 c0 19 12 45 32 70 l32 40 115 -3
116 -3 3 -27z m470 5 c2 -12 -6 -43 -17 -68 l-20 -45 -125 0 -126 0 0 27 c0
14 12 46 26 70 l25 44 117 -3 c112 -3 117 -4 120 -25z m467 5 c3 -13 0 -43 -8
-68 l-13 -45 -124 0 -125 0 3 35 c2 19 10 50 17 68 l14 32 115 0 c112 0 116
-1 121 -22z m467 -5 c2 -16 1 -47 -1 -70 l-3 -43 -125 0 -126 0 7 61 c3 33 8
65 12 70 3 5 56 9 119 9 l114 0 3 -27z m473 -6 c8 -40 3 -107 -7 -107 -5 0
-60 0 -123 0 l-115 0 0 70 0 70 120 0 119 0 6 -33z m479 -14 c9 -26 16 -57 16
-70 0 -23 -1 -23 -124 -23 l-124 0 -11 31 c-6 18 -11 49 -11 70 l0 39 119 0
119 0 16 -47z m471 7 c14 -22 25 -53 25 -70 l0 -30 -123 0 -123 0 -17 35 c-9
20 -17 51 -17 70 l0 35 115 0 115 0 25 -40z m479 -4 c34 -41 47 -90 26 -98 -5
-1 -62 -1 -126 2 l-116 5 -30 42 c-23 31 -29 48 -24 67 l6 26 115 0 114 0 35
-44z"/>
<path d="M2517 1333 c-4 -3 -7 -12 -7 -20 0 -10 20 -13 79 -13 75 0 91 6 91
36 0 7 -156 4 -163 -3z"/>
<path d="M2927 1333 c-4 -3 -7 -12 -7 -20 0 -10 20 -13 80 -13 73 0 80 2 80
20 0 18 -7 20 -73 20 -41 0 -77 -3 -80 -7z"/>
<path d="M2100 1300 c-11 -20 -9 -21 72 -18 70 3 83 6 86 21 3 15 -6 17 -72
17 -66 0 -77 -3 -86 -20z"/>
<path d="M1347 1182 c-10 -10 -17 -22 -17 -25 0 -13 185 -8 198 5 30 30 13 38
-76 38 -73 0 -92 -3 -105 -18z"/>
<path d="M1786 1175 l-16 -25 94 0 c84 0 97 2 106 19 5 11 10 22 10 25 0 3
-40 6 -89 6 -84 0 -90 -1 -105 -25z"/>
<path d="M2230 1181 c-5 -11 -10 -22 -10 -26 0 -3 42 -4 93 -3 87 3 92 4 95
26 3 21 1 22 -82 22 -74 0 -87 -3 -96 -19z"/>
<path d="M2677 1193 c-4 -3 -7 -15 -7 -25 0 -17 8 -19 88 -16 82 3 87 4 90 26
3 21 1 22 -81 22 -46 0 -87 -3 -90 -7z"/>
<path d="M3116 1184 c-11 -28 4 -34 90 -34 83 0 84 0 84 25 0 25 -1 25 -84 25
-67 0 -85 -3 -90 -16z"/>
<path d="M3550 1191 c0 -36 12 -41 100 -41 l87 0 -5 25 c-4 24 -6 25 -93 25
-49 0 -89 -4 -89 -9z"/>
<path d="M4432 1175 c11 -24 14 -25 106 -25 l94 0 -14 23 c-14 20 -25 22 -107
25 l-91 3 12 -26z"/>
<path d="M4860 1192 c0 -5 8 -16 18 -25 15 -13 39 -17 112 -17 l93 0 -23 25
c-22 23 -31 25 -112 25 -48 0 -88 -4 -88 -8z"/>
<path d="M1456 1025 c-9 -13 -16 -27 -16 -30 0 -3 45 -5 99 -5 92 0 101 2 115
22 9 12 16 26 16 30 0 5 -44 8 -99 8 -94 0 -99 -1 -115 -25z"/>
<path d="M1932 1025 c-7 -14 -12 -28 -12 -30 0 -3 44 -5 98 -5 96 0 99 1 110
25 7 14 12 28 12 30 0 3 -44 5 -98 5 -96 0 -99 -1 -110 -25z"/>
<path d="M2410 1031 c-20 -38 -13 -41 85 -41 93 0 96 1 105 26 6 14 10 27 10
30 0 2 -43 4 -95 4 -83 0 -96 -2 -105 -19z"/>
<path d="M2886 1034 c-16 -41 -10 -44 89 -44 l95 0 0 30 0 30 -89 0 c-72 0
-90 -3 -95 -16z"/>
<path d="M3360 1020 l0 -30 95 0 95 0 0 30 0 30 -95 0 -95 0 0 -30z"/>
<path d="M3830 1036 c0 -42 9 -46 106 -46 98 0 104 3 88 44 -9 22 -194 24
-194 2z"/>
<path d="M4300 1039 c0 -6 5 -19 10 -30 10 -17 22 -19 111 -19 l100 0 -18 30
c-17 30 -18 30 -110 30 -59 0 -93 -4 -93 -11z"/>
<path d="M4766 1038 c25 -45 35 -48 136 -48 l99 0 -21 30 c-21 30 -22 30 -121
30 -77 0 -99 -3 -93 -12z"/>
<path d="M1548 1395 c-38 -41 -68 -81 -68 -89 0 -14 23 -16 171 -16 152 0 173
2 185 18 21 27 17 35 -16 30 -50 -8 -53 13 -10 67 22 28 40 53 40 58 0 4 -53
7 -117 6 l-118 -1 -67 -73z"/>
<path d="M2021 1456 c-17 -20 -4 -24 70 -21 67 2 89 9 89 26 0 15 -146 11
-159 -5z"/>
<path d="M2367 1455 c-8 -20 -2 -22 78 -21 58 1 70 4 73 19 3 15 -5 17 -71 17
-57 0 -76 -4 -80 -15z"/>
<path d="M2730 1453 c0 -17 20 -18 353 -17 417 1 397 0 397 20 0 14 -8 15 -52
9 -29 -4 -69 -6 -88 -6 -19 1 -164 4 -322 7 -272 5 -288 4 -288 -13z"/>
<path d="M0 1120 l0 -320 438 0 437 0 0 29 c0 25 37 67 245 278 135 137 263
267 285 291 l39 42 -722 0 -722 0 0 -320z"/>
<path d="M5161 1233 c352 -357 369 -375 369 -405 l0 -28 435 0 435 0 0 320 0
320 -722 0 -722 0 205 -207z"/>
<path d="M3796 1325 c-16 -25 -16 -25 14 -25 29 0 30 2 19 23 -6 12 -13 23
-14 25 -1 1 -10 -9 -19 -23z"/>
<path d="M4150 1325 c0 -18 5 -25 20 -25 20 0 20 1 4 25 -9 14 -18 25 -20 25
-2 0 -4 -11 -4 -25z"/>
<path d="M3330 1320 c0 -18 7 -20 84 -20 79 0 84 1 79 20 -5 18 -14 20 -84 20
-72 0 -79 -2 -79 -20z"/>
<path d="M4560 1326 c0 -30 28 -35 203 -38 97 -2 177 -1 177 2 0 3 -7 16 -16
29 -16 22 -20 23 -123 17 -58 -4 -124 -8 -146 -9 -22 -1 -52 1 -67 6 -21 5
-28 4 -28 -7z"/>
<path d="M3990 1191 c0 -36 12 -41 101 -41 49 0 89 3 89 6 0 3 -5 14 -10 25
-9 16 -22 19 -95 19 -47 0 -85 -4 -85 -9z"/>
<path d="M900 810 c0 -7 773 -10 2300 -10 1527 0 2300 3 2300 10 0 7 -773 10
-2300 10 -1527 0 -2300 -3 -2300 -10z"/>
</g>
</svg>
